<?xml version="1.0" encoding="UTF-8"?>
<svg xmlns="http://www.w3.org/2000/svg" version="1.1" viewBox="0 0 366.32 126.16">
  <defs>
    <style>
      .cls-1 {
        fill: #5ccec0;
      }

      .cls-2 {
        fill: #fae2bc;
      }

      .cls-3 {
        fill: #0c0c0c;
      }

      .cls-4 {
        fill: #ffc924;
      }

      .cls-5 {
        fill: #2d2e71;
      }

      .cls-6 {
        fill: #fff;
      }

      .cls-7 {
        fill: #1a2141;
      }

      .cls-8 {
        fill: #77dfd3;
      }

      .cls-9 {
        fill: #ffb205;
      }

      .cls-10 {
        fill: #fff0d1;
      }
    </style>
  </defs>
  <!-- Generator: Adobe Illustrator 28.6.0, SVG Export Plug-In . SVG Version: 1.2.0 Build 709)  -->
  <g>
    <g id="Layer_1">
      <g>
        <g>
          <g>
            <g>
              <path class="cls-2" d="M95.35,41.49c1.22-.44,1.97-1.45,1.68-2.25s-1.51-1.09-2.73-.65-1.97,1.45-1.68,2.25c.29.8,1.51,1.09,2.73.65Z"/>
              <path class="cls-2" d="M67.95,99.08c-1.17-.55-2.41-.37-2.77.4s.3,1.84,1.47,2.39c1.17.55,2.41.37,2.77-.4.36-.77-.3-1.84-1.47-2.39Z"/>
              <path class="cls-2" d="M56.86,72.51c-.8.29-1.09,1.51-.65,2.73.44,1.22,1.45,1.97,2.25,1.68s1.09-1.51.65-2.73-1.45-1.97-2.25-1.68Z"/>
              <path class="cls-2" d="M70.46,50.33c.55-1.17.37-2.41-.4-2.77-.77-.36-1.84.3-2.39,1.47-.55,1.17-.37,2.41.4,2.77.77.36,1.84-.3,2.39-1.47Z"/>
              <path class="cls-2" d="M81.31,100.08c-.65-.03-1.18.29-1.2.72-.02.43.49.79,1.14.82s1.18-.29,1.2-.72c.02-.43-.49-.79-1.14-.82Z"/>
              <path class="cls-2" d="M68.07,85.72c.31-.29.21-.91-.22-1.38-.44-.48-1.05-.63-1.36-.34-.31.29-.21.91.22,1.38.44.48,1.05.63,1.36.34Z"/>
              <path class="cls-2" d="M69.45,63.69c.03-.65-.29-1.18-.72-1.2-.43-.02-.79.49-.82,1.14-.03.65.29,1.18.72,1.2.43.02.79-.49.82-1.14Z"/>
              <path class="cls-2" d="M85.2,50.22c.48-.44.63-1.05.34-1.36-.29-.31-.91-.21-1.38.22-.48.44-.63,1.05-.34,1.36.29.31.91.21,1.38-.22Z"/>
              <path class="cls-2" d="M88.92,69.76c2.84.35,5.42-1.68,5.77-4.51.35-2.84-1.68-5.42-4.51-5.77-2.84-.35-5.42,1.68-5.77,4.51-.35,2.84,1.68,5.42,4.51,5.77Z"/>
              <path class="cls-2" d="M86.42,80.21c-2.84-.35-5.42,1.68-5.77,4.51-.35,2.84,1.68,5.42,4.51,5.77,2.84.35,5.42-1.68,5.77-4.51.35-2.84-1.68-5.42-4.51-5.77Z"/>
              <path class="cls-2" d="M89.83,74.7c-.25,2.01,1.19,3.85,3.2,4.09,2.01.25,3.85-1.19,4.09-3.2.25-2.01-1.19-3.85-3.2-4.09-2.01-.25-3.85,1.19-4.09,3.2Z"/>
              <path class="cls-2" d="M84.65,72.3c.17-1.43-.84-2.73-2.27-2.91-1.43-.17-2.73.84-2.91,2.27-.17,1.43.84,2.73,2.27,2.91,1.43.17,2.73-.84,2.91-2.27Z"/>
              <path class="cls-2" d="M86.96,75.47c-.72-.09-1.37.42-1.45,1.14-.09.72.42,1.37,1.14,1.45s1.37-.42,1.45-1.14c.09-.72-.42-1.37-1.14-1.45Z"/>
            </g>
            <g>
              <path class="cls-2" d="M89.09,42.21c-.74.45-1.1,1.22-.8,1.71.3.49,1.14.52,1.89.07.74-.45,1.1-1.22.8-1.71-.3-.49-1.14-.52-1.89-.07Z"/>
              <path class="cls-10" d="M71.84,37.92c-.85-.2-1.64.08-1.78.64-.13.56.44,1.17,1.29,1.38.85.2,1.64-.08,1.78-.64.13-.56-.44-1.17-1.29-1.38Z"/>
              <path class="cls-10" d="M60.97,21.88c-.49.3-.52,1.14-.07,1.89.45.74,1.22,1.1,1.71.8.49-.3.52-1.14.07-1.89-.45-.74-1.22-1.1-1.71-.8Z"/>
              <path class="cls-2" d="M94.62,35.09c-.26.35-.27.77-.04.94.23.17.63.02.88-.33.26-.35.27-.77.04-.94-.23-.17-.63-.02-.88.33Z"/>
              <path class="cls-10" d="M80.78,36.79c-.43.07-.74.35-.7.64.04.28.43.46.86.39.43-.07.74-.35.7-.64-.04-.28-.43-.46-.86-.39Z"/>
              <path class="cls-10" d="M70.12,29.1c.17-.23.02-.63-.33-.88-.35-.26-.77-.27-.94-.04-.17.23-.02.63.33.88.35.26.77.27.94.04Z"/>
              <path class="cls-10" d="M68.09,14.38c-.07-.43-.35-.74-.64-.7s-.46.43-.39.86c.07.43.35.74.64.7s.46-.43.39-.86Z"/>
              <path class="cls-10" d="M81.49,23c-1.92.15-3.35,1.83-3.2,3.75.15,1.92,1.83,3.35,3.75,3.2,1.92-.15,3.35-1.83,3.2-3.75-.15-1.92-1.83-3.35-3.75-3.2Z"/>
              <path class="cls-10" d="M79.27,18.03c-.08-.97-.92-1.69-1.89-1.61s-1.69.92-1.61,1.89c.08.97.92,1.69,1.89,1.61.97-.08,1.69-.92,1.61-1.89Z"/>
              <g>
                <path class="cls-2" d="M80.94,37.82c.43-.07.74-.35.7-.64-.04-.28-.43-.46-.86-.39-.12.02-.22.05-.32.1,0,.3.01.59.02.89.14.04.29.06.46.03Z"/>
                <path class="cls-2" d="M82.04,29.95c1.92-.15,3.35-1.83,3.2-3.75-.15-1.92-1.83-3.35-3.75-3.2-.84.07-1.57.43-2.13.97.28,1.84.52,3.69.7,5.54.58.33,1.27.49,1.98.44Z"/>
                <path class="cls-2" d="M78.57,19.56c.46-.35.74-.92.69-1.54-.06-.79-.64-1.41-1.38-1.57.24,1.03.47,2.07.68,3.11Z"/>
              </g>
              <path class="cls-2" d="M89.43,24.38c-.08-.97-.92-1.69-1.89-1.61-.97.08-1.69.92-1.61,1.89s.92,1.69,1.89,1.61,1.69-.92,1.61-1.89Z"/>
              <path class="cls-2" d="M81.21,19.8c-.48.04-.84.46-.81.94.04.48.46.84.94.81.48-.04.84-.46.81-.94-.04-.48-.46-.84-.94-.81Z"/>
              <path class="cls-2" d="M92.21,25.37c-.48.04-.84.46-.81.94.04.48.46.84.94.81.48-.04.84-.46.81-.94-.04-.48-.46-.84-.94-.81Z"/>
            </g>
          </g>
          <path class="cls-5" d="M48.99,0L3.08,27.11c-1.71,1.01-2.81,2.81-2.91,4.79-.77,14.61-.79,74.97,49.71,93.88,1.38.52,2.89.52,4.27,0,50.5-18.91,50.49-79.27,49.71-93.88-.11-1.99-1.2-3.78-2.91-4.79L55.03,0"/>
          <path class="cls-7" d="M103.86,31.9c-.11-1.99-1.2-3.78-2.91-4.79l-23.93-14.13c1.99,7.24,3.16,14.71,3.42,22.2.98,27.87-9.7,55.51-27.04,77.35-2.97,3.74-6.14,7.31-9.46,10.72,1.9.91,3.88,1.76,5.95,2.53,1.38.52,2.89.52,4.27,0,50.5-18.91,50.49-79.27,49.71-93.88Z"/>
          <path class="cls-8" d="M52.01,116.66c-18.07-7.14-30.65-21.36-37.39-42.27-5.29-16.43-5.54-32.53-5.27-40.2L52.01,8.99l42.66,25.19c.27,7.67.02,23.77-5.27,40.2-6.74,20.92-19.32,35.13-37.39,42.27Z"/>
          <path class="cls-4" d="M92.37,62.82c2.4-12.05,2.5-22.8,2.3-28.64L52.01,8.99v53.83h40.36Z"/>
          <path class="cls-4" d="M52.01,62.82H11.65c.75,3.76,1.72,7.65,2.97,11.56,6.74,20.92,19.32,35.13,37.39,42.27h0v-53.83Z"/>
          <g>
            <path class="cls-1" d="M79.56,25.26c.46,3.29.76,6.6.88,9.92.98,27.87-9.7,55.51-27.04,77.35-.94,1.18-1.91,2.34-2.88,3.49.5.21.99.44,1.5.64,18.07-7.14,30.65-21.36,37.39-42.27,5.29-16.43,5.54-32.53,5.27-40.2l-15.11-8.92Z"/>
            <path class="cls-9" d="M79.56,25.26c.46,3.29.76,6.6.88,9.92.33,9.31-.65,18.6-2.74,27.65h14.68c2.4-12.05,2.5-22.8,2.3-28.64l-15.11-8.92Z"/>
            <path class="cls-9" d="M52.01,116.66h0v-2.46c-.5.61-.99,1.22-1.5,1.82.5.21.99.44,1.5.64Z"/>
          </g>
          <circle class="cls-6" cx="52.01" cy="62.82" r="17.34" transform="translate(-21.02 99.14) rotate(-76.82)"/>
          <polygon class="cls-5" points="63.24 60.51 54.33 60.51 54.33 51.59 49.69 51.59 49.69 60.51 40.78 60.51 40.78 65.14 49.69 65.14 49.69 74.05 54.33 74.05 54.33 65.14 63.24 65.14 63.24 60.51"/>
        </g>
        <g>
          <path class="cls-3" d="M186.21,20.95h16.56v84h-12.6l-36-51.36v51.36h-16.56V20.95h12.59l36.01,51.17V20.95Z"/>
          <path class="cls-3" d="M258.2,106.63c-12.64,0-23.08-4.2-31.32-12.6-8.24-8.4-12.36-18.76-12.36-31.08s4.12-22.78,12.36-31.14c8.24-8.36,18.68-12.54,31.32-12.54,7.6,0,14.62,1.78,21.06,5.34,6.44,3.56,11.46,8.38,15.06,14.46l-14.28,8.28c-2.08-3.76-5.04-6.7-8.88-8.82-3.84-2.12-8.16-3.18-12.96-3.18-8.16,0-14.74,2.56-19.74,7.68-5,5.12-7.5,11.76-7.5,19.92s2.5,14.68,7.5,19.8c5,5.12,11.58,7.68,19.74,7.68,4.8,0,9.14-1.06,13.02-3.18,3.88-2.12,6.82-5.02,8.82-8.7l14.28,8.28c-3.6,6.08-8.6,10.9-15,14.46-6.4,3.56-13.44,5.34-21.12,5.34Z"/>
          <path class="cls-3" d="M355.28,61.39c7.36,4.24,11.04,10.64,11.04,19.2,0,7.12-2.52,12.96-7.56,17.52-5.04,4.56-11.24,6.84-18.6,6.84h-35.64V20.95h33.12c7.2,0,13.26,2.22,18.18,6.66s7.38,10.1,7.38,16.98-2.64,12.56-7.92,16.8ZM337.65,36.43h-16.56v18.48h16.56c2.56,0,4.7-.88,6.42-2.64,1.72-1.76,2.58-3.96,2.58-6.6s-.84-4.84-2.52-6.6c-1.68-1.76-3.84-2.64-6.48-2.64ZM340.17,89.47c2.8,0,5.12-.94,6.96-2.82,1.84-1.88,2.76-4.26,2.76-7.14s-.92-5.14-2.76-7.02c-1.84-1.88-4.16-2.82-6.96-2.82h-19.08v19.8h19.08Z"/>
        </g>
      </g>
    </g>
  </g>
</svg>